<svg version="1.1" xmlns="http://www.w3.org/2000/svg" xmlns:xlink="http://www.w3.org/1999/xlink" x="0px" y="0px" width="20" height="14" viewBox="0 0 20 14" enable-background="new 0 0 20 14" xml:space="preserve">
  <path d="M11.9,1.7L10,0L8.2,1.7L10,3.5L11.9,1.7L11.9,1.7z M1.4,2.2L0,3.5l1.4,1.2l1.4-1.2L1.4,2.2L1.4,2.2z M16,13.1H4V14 h12V13.1L16,13.1z M10,3.6L6.1,7.1l-4-2.6L4,12.1h12l2-7.6l-4,2.5L10,3.6L10,3.6z M10,10.3L8.6,9L10,7.6l1.4,1.3L10,10.3L10,10.3z M18.6,2.2l-1.4,1.2l1.4,1.2L20,3.5L18.6,2.2L18.6,2.2z"/>
</svg>
